<?xml version="1.0" encoding="UTF-8" standalone="no"?>
<!DOCTYPE svg PUBLIC "-//W3C//DTD SVG 1.1//EN" "http://www.w3.org/Graphics/SVG/1.1/DTD/svg11.dtd">
<svg width="100%" height="100%" viewBox="0 0 13 8" version="1.1" xmlns="http://www.w3.org/2000/svg" xmlns:xlink="http://www.w3.org/1999/xlink" xml:space="preserve" xmlns:serif="http://www.serif.com/" style="fill-rule:evenodd;clip-rule:evenodd;stroke-linejoin:round;stroke-miterlimit:2;">
    <g transform="matrix(1,0,0,1,-2.16378e-05,-1.78153e-05)">
        <g transform="matrix(1,0,0,1,-9.64803,-5.3376)">
            <g transform="matrix(1,0,0,1,9.64803,5.3376)">
                <path d="M5.883,0C7.675,0 9.093,0.549 10.381,1.927C10.54,2.097 10.53,2.363 10.361,2.521C10.191,2.68 9.926,2.67 9.767,2.501C8.639,1.294 7.439,0.84 5.883,0.84C3.881,0.84 2.038,1.935 0.908,3.782C2.038,5.628 3.881,6.723 5.883,6.723C7.957,6.723 9.863,5.546 10.979,3.575C11.094,3.372 11.351,3.301 11.552,3.416C11.754,3.53 11.825,3.787 11.711,3.989C10.443,6.227 8.264,7.563 5.883,7.563C3.501,7.563 1.322,6.227 0.055,3.989C-0.018,3.86 -0.018,3.703 0.055,3.575C1.322,1.337 3.501,0 5.883,0ZM5.883,5.883C7.041,5.883 7.984,4.94 7.984,3.782C7.984,2.623 7.041,1.681 5.883,1.681C4.724,1.681 3.782,2.623 3.782,3.782C3.782,4.94 4.724,5.883 5.883,5.883ZM5.883,2.521C6.578,2.521 7.143,3.087 7.143,3.782C7.143,4.477 6.578,5.042 5.883,5.042C5.188,5.042 4.622,4.477 4.622,3.782C4.622,3.087 5.188,2.521 5.883,2.521Z" style="fill:rgb(0,174,166);fill-rule:nonzero;"/>
            </g>
            <g transform="matrix(0.844337,0,0,0.753495,-2.65108,-3.465)">
                <ellipse cx="27.395" cy="15.028" rx="2.218" ry="2.474" style="fill:rgb(0,174,166);"/>
            </g>
            <g transform="matrix(0.532802,-0.532802,0.532802,0.532802,10.5395,10.7549)">
                <path d="M12.788,5.126L13.53,5.868L12.788,6.61L13.53,7.352L12.788,8.094L12.046,7.352L11.304,8.094L10.561,7.352L11.304,6.61L10.561,5.868L11.304,5.126L12.046,5.868L12.788,5.126Z" style="fill:white;"/>
            </g>
        </g>
    </g>
</svg>
