<?xml version="1.0" encoding="UTF-8" standalone="no"?>
<!DOCTYPE svg PUBLIC "-//W3C//DTD SVG 1.1//EN" "http://www.w3.org/Graphics/SVG/1.1/DTD/svg11.dtd">
<svg width="100%" height="100%" viewBox="0 0 11 11" version="1.1" xmlns="http://www.w3.org/2000/svg" xmlns:xlink="http://www.w3.org/1999/xlink" xml:space="preserve" xmlns:serif="http://www.serif.com/" style="fill-rule:evenodd;clip-rule:evenodd;stroke-linejoin:round;stroke-miterlimit:2;">
    <g transform="matrix(1,0,0,1,-4.9144e-05,1.07295e-05)">
        <g transform="matrix(1,0,0,1,4.9144e-05,-1.07295e-05)">
            <path d="M9.995,9.337L9.618,9.604C9.28,9.797 8.893,9.916 8.475,9.916C8.17,9.916 7.88,9.853 7.613,9.747L5.316,10.972L5.316,5.562L10.171,3.064L10.171,6.015C10.557,6.43 10.799,6.982 10.799,7.593C10.799,8.291 10.483,8.91 9.995,9.337ZM-0,3.034L4.855,5.561L4.855,10.972L-0,8.382L-0,3.034ZM10.336,7.593C10.336,6.567 9.501,5.732 8.475,5.732C7.45,5.732 6.615,6.567 6.615,7.593C6.615,8.618 7.45,9.454 8.475,9.454C9.501,9.454 10.336,8.618 10.336,7.593ZM8.08,6.407L8.871,6.407L8.871,7.197L9.662,7.197L9.662,7.988L8.871,7.988L8.871,8.779L8.08,8.779L8.08,7.988L7.289,7.989L7.29,7.197L8.08,7.197L8.08,6.407ZM2.363,1.485L0.245,2.64L5.086,5.161L7.268,4.039L2.363,1.485ZM9.927,2.67L5.085,0L2.852,1.218L7.772,3.779L9.927,2.67Z" style="fill:rgb(0,174,166);"/>
        </g>
    </g>
</svg>
