<svg xmlns="http://www.w3.org/2000/svg" width="145.279" height="116.223" viewBox="0 0 145.279 116.223">
  <path id="icons8-identification_documents" d="M2,18.528v87.167a14.571,14.571,0,0,0,14.528,14.528H132.751a14.571,14.571,0,0,0,14.528-14.528V18.528A14.571,14.571,0,0,0,132.751,4H16.528A14.524,14.524,0,0,0,2,18.528ZM45.584,33.056A14.528,14.528,0,1,1,31.056,47.584,14.524,14.524,0,0,1,45.584,33.056ZM23.792,84.63c0-7.249,14.521-10.9,21.792-10.9s21.792,3.646,21.792,10.9v6.538H23.792Zm101.7-29.782H81.9V40.32h43.584Zm0,29.056H81.9V69.375h43.584Z" transform="translate(-2 -4)" fill="#48e6da"/>
</svg>
