<svg id="Component_4_1" data-name="Component 4 – 1" xmlns="http://www.w3.org/2000/svg" width="91.765" height="64.991" viewBox="0 0 91.765 64.991">
  <path id="Path_18" data-name="Path 18" d="M20.188,11C8.989,11,0,19.162,0,29.331a16.782,16.782,0,0,0,3.671,10.5V62.659c0,2.67,2.566,5,5.506,5H13.02c.881,4.713,5.412,8.332,10.839,8.332s9.958-3.619,10.839-8.332h16.87a4.915,4.915,0,0,0,5.146-4.668V22.5a4.783,4.783,0,0,0-4.961-4.836H35.788A21.341,21.341,0,0,0,20.188,11Zm0,3.333c9.177,0,16.518,6.666,16.518,15s-7.341,15-16.518,15-16.518-6.666-16.518-15S11.012,14.333,20.188,14.333ZM62.4,26a3.52,3.52,0,0,0-3.671,3.333V64.326a3.358,3.358,0,0,0,2.323,3.091c.774,4.831,5.368,8.574,10.889,8.574,5.427,0,9.966-3.619,10.847-8.332h3.471c3.118,0,5.506-2.168,5.506-5V46.665c0-3.333-2.566-6.834-2.933-7.172L84.6,34.33l-3.485-4.166C79.283,28.328,76.53,26,73.412,26Zm7.341,8.332H80.016l5.878,7c.552.833,2.2,3.333,2.2,5.169v1.165H69.742a3.78,3.78,0,0,1-3.671-3.333V37.663A3.645,3.645,0,0,1,69.742,34.33Zm-45.883,25c4.036,0,7.341,3,7.341,6.666s-3.305,6.666-7.341,6.666-7.341-3-7.341-6.666S19.823,59.326,23.859,59.326Zm48.083,0c4.036,0,7.341,3,7.341,6.666s-3.305,6.666-7.341,6.666-7.341-3-7.341-6.666S67.906,59.326,71.942,59.326Z" transform="translate(0 -11)" fill="#db6f6f"/>
  <path id="Path_19" data-name="Path 19" d="M14.45,22.32l4.939-4.731a2.2,2.2,0,0,1,2.9-.07,1.743,1.743,0,0,1,.077,2.63l-5.014,4.8,5.332,4.841a1.745,1.745,0,0,1,0,2.631,2.2,2.2,0,0,1-2.9,0l-5.253-4.769L9.584,32.388a2.2,2.2,0,0,1-2.9.07,1.744,1.744,0,0,1-.077-2.63l5.02-4.808L6.648,20.5a1.743,1.743,0,0,1,0-2.631,2.2,2.2,0,0,1,2.9,0Z" transform="translate(5.052 -6.995)" fill="#db6f6f" fill-rule="evenodd"/>
</svg>
