<svg id="Component_2_1" data-name="Component 2 – 1" xmlns="http://www.w3.org/2000/svg" width="114.641" height="62.599" viewBox="0 0 114.641 62.599">
  <path id="Path_10" data-name="Path 10" d="M47.717,8.854,11.454,8.7A10.261,10.261,0,0,0,1.17,18.981c0,6.475,0,13.6,0,13.6v24.44A5.472,5.472,0,0,0,6.5,62.378h3.721a10.632,10.632,0,0,0,20.987,0H47.537a4.983,4.983,0,0,0,4.982-5V14.032A4.885,4.885,0,0,0,47.717,8.854Zm10.307,8.921a3.567,3.567,0,0,0-3.554,3.568V58.809a3.57,3.57,0,0,0,2.249,3.31,10.642,10.642,0,0,0,21.043.259h3.36a5.248,5.248,0,0,0,5.33-5.352V39.9a14.691,14.691,0,0,0-2.839-7.679L79.52,26.7l-3.374-4.46c-1.777-1.966-4.442-4.46-7.461-4.46ZM65.131,26.7h9.946l5.691,7.491c.535.892,2.13,3.568,2.13,5.534v1.247H65.131A3.829,3.829,0,0,1,61.578,37.4V30.264A3.69,3.69,0,0,1,65.131,26.7ZM20.711,53.457A7.136,7.136,0,1,1,13.6,60.594,7.145,7.145,0,0,1,20.711,53.457Zm46.55,0a7.136,7.136,0,1,1-7.107,7.136A7.145,7.145,0,0,1,67.262,53.457Z" transform="translate(28.188 -8.699)" fill="#fdc874"/>
  <path id="Path_11" data-name="Path 11" d="M33.414,6.7a1.4,1.4,0,0,0-1.4-1.4H7.4a1.4,1.4,0,0,0,0,2.8H32.018A1.4,1.4,0,0,0,33.414,6.7Z" transform="translate(2.033 9.891)" fill="#fdc874" fill-rule="evenodd"/>
  <path id="Path_12" data-name="Path 12" d="M33.414,6.7a1.4,1.4,0,0,0-1.4-1.4H7.4a1.4,1.4,0,0,0,0,2.8H32.018A1.4,1.4,0,0,0,33.414,6.7Z" transform="translate(-6 16.008)" fill="#fdc874" fill-rule="evenodd"/>
  <path id="Path_13" data-name="Path 13" d="M33.414,6.7a1.4,1.4,0,0,0-1.4-1.4H7.4a1.4,1.4,0,0,0,0,2.8H32.018A1.4,1.4,0,0,0,33.414,6.7Z" transform="translate(-1.013 22.125)" fill="#fdc874" fill-rule="evenodd"/>
  <path id="Path_14" data-name="Path 14" d="M18.563,6.7a1.4,1.4,0,0,0-1.4-1.4H4.729a1.4,1.4,0,0,0,0,2.8H17.167A1.4,1.4,0,0,0,18.563,6.7Z" transform="translate(8.851 28.242)" fill="#fdc874" fill-rule="evenodd"/>
</svg>
