<svg id="Component_3_1" data-name="Component 3 – 1" xmlns="http://www.w3.org/2000/svg" width="93.282" height="72.79" viewBox="0 0 93.282 72.79">
  <path id="Path_15" data-name="Path 15" d="M20.522,11A20.462,20.462,0,0,0,0,31.53a20.033,20.033,0,0,0,3.731,11.76V68.859a5.735,5.735,0,0,0,5.6,5.6h3.907a11.171,11.171,0,0,0,22.037,0H52.421a5.223,5.223,0,0,0,5.231-5.228V23.882a5.118,5.118,0,0,0-5.043-5.416H36.38A20.805,20.805,0,0,0,20.522,11Zm0,3.733A16.8,16.8,0,1,1,3.731,31.53,16.724,16.724,0,0,1,20.522,14.733ZM63.432,27.8A3.738,3.738,0,0,0,59.7,31.53V70.725a3.735,3.735,0,0,0,2.362,3.462,11.18,11.18,0,0,0,22.095.271h3.528a5.5,5.5,0,0,0,5.6-5.6V50.945c0-3.733-2.608-7.654-2.981-8.033L86,37.13l-3.543-4.666C80.594,30.407,77.8,27.8,74.626,27.8Zm7.463,9.332H81.338l5.976,7.837c.562.933,2.237,3.733,2.237,5.79v1.3H70.894a4.013,4.013,0,0,1-3.731-3.733V40.863A3.867,3.867,0,0,1,70.894,37.13Zm-46.641,28a7.466,7.466,0,1,1-7.463,7.466A7.488,7.488,0,0,1,24.253,65.126Zm48.878,0a7.466,7.466,0,1,1-7.463,7.466A7.488,7.488,0,0,1,73.131,65.126Z" transform="translate(0 -11)" fill="#5cbf8e"/>
  <path id="Path_16" data-name="Path 16" d="M20.646,1.866A1.866,1.866,0,0,0,18.78,0L1.866,0a1.866,1.866,0,1,0,0,3.732l16.914,0A1.868,1.868,0,0,0,20.646,1.866Z" transform="matrix(0.688, -0.726, 0.726, 0.688, 14.24, 25.425)" fill="#5cbf8e" fill-rule="evenodd"/>
  <path id="Path_17" data-name="Path 17" d="M8.691,0H1.833A1.834,1.834,0,0,0,0,1.834a1.9,1.9,0,0,0,1.9,1.9H8.239a.452.452,0,0,0,.453-.452Z" transform="translate(12.817 19.758) rotate(45)" fill="#5cbf8e" fill-rule="evenodd"/>
</svg>
