<svg xmlns="http://www.w3.org/2000/svg" width="121.874" height="89.087" viewBox="0 0 121.874 89.087">
  <path id="Path_25" data-name="Path 25" d="M67.687,8.92,15.868,8.7a14.633,14.633,0,0,0-14.7,14.632c0,9.214-.005,19.36-.005,19.36V77.474a7.8,7.8,0,0,0,7.617,7.617H14.1a15.2,15.2,0,0,0,29.991,0H67.43a7.106,7.106,0,0,0,7.119-7.112V16.288A6.964,6.964,0,0,0,67.687,8.92Zm14.729,12.7a5.086,5.086,0,0,0-5.078,5.078v53.32a5.081,5.081,0,0,0,3.214,4.71,15.217,15.217,0,0,0,30.07.368h4.8a7.484,7.484,0,0,0,7.617-7.617V53.1c0-5.078-3.55-10.413-4.057-10.928l-5.85-7.866-4.822-6.348c-2.539-2.8-6.348-6.348-10.661-6.348Zm10.156,12.7h14.214l8.133,10.661c.764,1.27,3.044,5.078,3.044,7.876v1.775H92.572a5.461,5.461,0,0,1-5.078-5.078V39.389A5.262,5.262,0,0,1,92.572,34.311ZM29.1,72.4A10.156,10.156,0,1,1,18.94,82.552,10.189,10.189,0,0,1,29.1,72.4Zm66.52,0A10.156,10.156,0,1,1,85.46,82.552,10.189,10.189,0,0,1,95.616,72.4Z" transform="translate(-1.167 -8.699)" fill="#48e6da"/>
</svg>
