<svg xmlns="http://www.w3.org/2000/svg" xmlns:xlink="http://www.w3.org/1999/xlink" width="98" height="73" viewBox="0 0 98 73">
  <defs>
    <clipPath id="clip-path">
      <rect id="Rectangle_25" data-name="Rectangle 25" width="98" height="73" rx="27" transform="translate(439 647.714)" fill="#9b5913"/>
    </clipPath>
  </defs>
  <g id="Mask_Group_1" data-name="Mask Group 1" transform="translate(-439 -647.714)" clip-path="url(#clip-path)">
    <path id="icons8-stack_of_coins" d="M152.42,101.125a22.548,22.548,0,0,0-11.875,3.1c-3.217,2-5.714,5.163-5.714,9.047a9,9,0,0,0,.887,3.862,3.094,3.094,0,0,0-.887,2.213v6.075a9,9,0,0,0,.887,3.862,3.094,3.094,0,0,0-.887,2.213v6.075a9,9,0,0,0,.887,3.862,3.094,3.094,0,0,0-.887,2.213v6.075a9,9,0,0,0,.887,3.862,3.094,3.094,0,0,0-.887,2.213v6.075c0,3.885,2.5,7.047,5.714,9.047a24.275,24.275,0,0,0,23.75,0,14.33,14.33,0,0,0,2.783-2.26,14.33,14.33,0,0,0,2.783,2.26,24.275,24.275,0,0,0,23.75,0c3.217-2,5.714-5.162,5.714-9.047V155.8a3.094,3.094,0,0,0-.887-2.219,9,9,0,0,0,.887-3.856v-6.075a3.094,3.094,0,0,0-.887-2.219,9,9,0,0,0,.887-3.856c0-3.884-2.5-7.047-5.714-9.047a24.276,24.276,0,0,0-23.75,0c-.223.139-.408.325-.624.475a8.947,8.947,0,0,0,.773-3.577V119.35a3.094,3.094,0,0,0-.887-2.219,9,9,0,0,0,.887-3.856c0-3.884-2.5-7.047-5.714-9.047A22.548,22.548,0,0,0,152.42,101.125Zm0,6.075a17.314,17.314,0,0,1,8.857,2.237c2.088,1.3,2.869,2.69,2.869,3.838s-.78,2.54-2.869,3.838a18.658,18.658,0,0,1-17.715,0c-2.088-1.3-2.869-2.69-2.869-3.838s.78-2.54,2.869-3.838A17.314,17.314,0,0,1,152.42,107.2Zm-11.726,15.2a24.236,24.236,0,0,0,23.452,0v3.026c0,1.148-.78,2.54-2.869,3.838a18.658,18.658,0,0,1-17.715,0c-2.089-1.3-2.869-2.69-2.869-3.838Zm41.041,9.1a17.314,17.314,0,0,1,8.857,2.237c2.088,1.3,2.868,2.69,2.868,3.838s-.78,2.54-2.868,3.838a18.658,18.658,0,0,1-17.715,0c-2.088-1.3-2.869-2.69-2.869-3.838s.78-2.54,2.869-3.838A17.314,17.314,0,0,1,181.735,131.5Zm-41.041,3.049a24.235,24.235,0,0,0,23.452,0v3.026c0,1.148-.78,2.54-2.869,3.838a18.658,18.658,0,0,1-17.715,0c-2.089-1.3-2.869-2.69-2.869-3.838Zm0,12.15a24.236,24.236,0,0,0,23.452,0v3.026c0,1.148-.78,2.54-2.869,3.838a18.657,18.657,0,0,1-17.715,0c-2.089-1.3-2.869-2.69-2.869-3.838Zm29.315,0a24.236,24.236,0,0,0,23.452,0v3.026c0,1.148-.78,2.54-2.868,3.838a18.657,18.657,0,0,1-17.715,0c-2.089-1.3-2.869-2.69-2.869-3.838Zm-29.315,12.15a24.236,24.236,0,0,0,23.452,0v3.026c0,1.148-.78,2.54-2.869,3.838a18.658,18.658,0,0,1-17.715,0c-2.089-1.3-2.869-2.69-2.869-3.838Zm29.315,0a24.236,24.236,0,0,0,23.452,0v3.026c0,1.148-.78,2.54-2.868,3.838a18.658,18.658,0,0,1-17.715,0c-2.089-1.3-2.869-2.69-2.869-3.838Z" transform="translate(320.971 546.691)" fill="#9b5913"/>
  </g>
</svg>
